<svg width="96" height="96" viewBox="0 0 96 96" fill="none" xmlns="http://www.w3.org/2000/svg">
  <rect width="96" height="96" rx="20" fill="#121827"/>
  <rect x="18" y="14" width="12" height="12" fill="#F2B88D"/>
  <rect x="66" y="14" width="12" height="12" fill="#2A2A34"/>
  <rect x="24" y="20" width="6" height="6" fill="#FFE6D1"/>
  <rect x="66" y="20" width="6" height="6" fill="#7B8297"/>
  <rect x="24" y="26" width="48" height="6" fill="#F6F7FB"/>
  <rect x="18" y="32" width="60" height="30" fill="#FFF8F2"/>
  <rect x="24" y="62" width="48" height="6" fill="#FFF8F2"/>
  <rect x="30" y="68" width="36" height="6" fill="#F4EFEA"/>
  <rect x="24" y="32" width="12" height="12" fill="#E8BE9E"/>
  <rect x="60" y="32" width="12" height="12" fill="#3B4153"/>
  <rect x="42" y="32" width="12" height="6" fill="#CFD7EA"/>
  <rect x="30" y="42" width="6" height="6" fill="#27324A"/>
  <rect x="60" y="42" width="6" height="6" fill="#27324A"/>
  <rect x="42" y="48" width="12" height="6" fill="#27324A"/>
  <rect x="36" y="54" width="6" height="6" fill="#27324A"/>
  <rect x="54" y="54" width="6" height="6" fill="#27324A"/>
  <rect x="66" y="70" width="6" height="12" fill="#CFD7EA"/>
  <rect x="60" y="76" width="18" height="6" fill="#CFD7EA"/>
</svg>
