<svg width="96" height="96" viewBox="0 0 96 96" fill="none" xmlns="http://www.w3.org/2000/svg">
  <rect width="96" height="96" rx="20" fill="#121827"/>
  <rect x="18" y="20" width="12" height="12" fill="#D7964E"/>
  <rect x="66" y="20" width="12" height="12" fill="#D7964E"/>
  <rect x="24" y="20" width="48" height="6" fill="#F5C18A"/>
  <rect x="24" y="26" width="48" height="6" fill="#F5C18A"/>
  <rect x="18" y="32" width="60" height="30" fill="#FFF0E0"/>
  <rect x="24" y="62" width="48" height="6" fill="#FFF0E0"/>
  <rect x="30" y="68" width="36" height="6" fill="#FFE4C6"/>
  <rect x="24" y="36" width="48" height="6" fill="#E3A15E"/>
  <rect x="30" y="42" width="6" height="6" fill="#27324A"/>
  <rect x="60" y="42" width="6" height="6" fill="#27324A"/>
  <rect x="42" y="48" width="12" height="6" fill="#27324A"/>
  <rect x="36" y="54" width="24" height="6" fill="#27324A"/>
  <rect x="24" y="74" width="48" height="6" fill="#B56E1F"/>
  <rect x="72" y="60" width="6" height="18" fill="#FFBF69"/>
  <rect x="66" y="66" width="18" height="6" fill="#FFBF69"/>
</svg>
